<?xml version="1.0" encoding="UTF-8" standalone="no"?>
<!-- Created with Inkscape (http://www.inkscape.org/) -->

<svg
   xmlns:dc="http://purl.org/dc/elements/1.1/"
   xmlns:cc="http://creativecommons.org/ns#"
   xmlns:rdf="http://www.w3.org/1999/02/22-rdf-syntax-ns#"
   xmlns:svg="http://www.w3.org/2000/svg"
   xmlns="http://www.w3.org/2000/svg"
   xmlns:sodipodi="http://sodipodi.sourceforge.net/DTD/sodipodi-0.dtd"
   xmlns:inkscape="http://www.inkscape.org/namespaces/inkscape"
   width="40.850632mm"
   height="8.1196299mm"
   viewBox="0 0 40.850632 8.1196299"
   version="1.1"
   id="svg8"
   inkscape:version="0.92.4 (unknown)"
   sodipodi:docname="logo.svg">
  <defs
     id="defs2" />
  <sodipodi:namedview
     id="base"
     pagecolor="#ffffff"
     bordercolor="#666666"
     borderopacity="1.0"
     inkscape:pageopacity="0.0"
     inkscape:pageshadow="2"
     inkscape:zoom="2.6406504"
     inkscape:cx="123.51062"
     inkscape:cy="46.721375"
     inkscape:document-units="mm"
     inkscape:current-layer="layer1"
     showgrid="false"
     inkscape:window-width="1366"
     inkscape:window-height="725"
     inkscape:window-x="0"
     inkscape:window-y="0"
     inkscape:window-maximized="1" />
  <metadata
     id="metadata5">
    <rdf:RDF>
      <cc:Work
         rdf:about="">
        <dc:format>image/svg+xml</dc:format>
        <dc:type
           rdf:resource="http://purl.org/dc/dcmitype/StillImage" />
        <dc:title></dc:title>
      </cc:Work>
    </rdf:RDF>
  </metadata>
  <g
     inkscape:label="Layer 1"
     inkscape:groupmode="layer"
     id="layer1"
     transform="translate(225.82468,-118.30159)">
    <text
       xml:space="preserve"
       style="font-style:normal;font-variant:normal;font-weight:normal;font-stretch:normal;font-size:9.8777771px;line-height:1.25;font-family:mononoki;-inkscape-font-specification:mononoki;letter-spacing:0px;word-spacing:0px;fill:#000000;fill-opacity:1;stroke:none;stroke-width:0.26458332"
       x="-226.78572"
       y="110.27975"
       id="text817"><tspan
         sodipodi:role="line"
         id="tspan815"
         x="-226.78572"
         y="110.27975"
         style="font-style:normal;font-variant:normal;font-weight:normal;font-stretch:normal;font-family:'7th Service Condensed';-inkscape-font-specification:'7th Service Condensed, ';fill:#009999;fill-opacity:1;stroke-width:0.26458332">enordi</tspan></text>
    <g
       aria-label="enordi"
       style="font-style:normal;font-variant:normal;font-weight:normal;font-stretch:normal;font-size:9.8777771px;line-height:1.25;font-family:mononoki;-inkscape-font-specification:mononoki;letter-spacing:0px;word-spacing:0px;fill:#000000;fill-opacity:1;stroke:none;stroke-width:0.26458332"
       id="text821"
       transform="translate(0.90176643,16.131601)"
       inkscape:export-filename="/home/iason/text821.png"
       inkscape:export-xdpi="261.14651"
       inkscape:export-ydpi="261.14651">
      <path
         d="m -226.72645,108.35358 h 5.73898 v 1.92617 h -5.73898 z m 0,-3.04235 h 5.73898 v 1.76812 h -5.73898 z m 0,-1.21497 v -1.92617 h 5.73898 v 1.92617 z"
         style="font-style:normal;font-variant:normal;font-weight:normal;font-stretch:normal;font-family:'7th Service Condensed';-inkscape-font-specification:'7th Service Condensed, ';fill:#009999;fill-opacity:1;stroke-width:0.26458332"
         id="path823"
         inkscape:connector-curvature="0" />
      <path
         d="m -219.87807,105.28159 h 1.65947 v 5.00803 h -1.65947 z m 0.0198,-1.0668 v -2.0447 h 5.36363 q 0.30621,0 0.60255,0.15805 0.30621,0.14816 0.55315,0.43462 0.24695,0.28645 0.39511,0.7112 0.15805,0.42474 0.15805,0.95814 v 5.83777 h -1.64959 v -4.91913 q -0.0395,-0.23707 -0.079,-0.45438 -0.0395,-0.22719 -0.16793,-0.41487 -0.11853,-0.19755 -0.19755,-0.22719 -0.079,-0.0296 -0.18768,-0.0395 z"
         style="font-style:normal;font-variant:normal;font-weight:normal;font-stretch:normal;font-family:'7th Service Condensed';-inkscape-font-specification:'7th Service Condensed, ';fill:#009999;fill-opacity:1;stroke-width:0.26458332"
         id="path825"
         inkscape:connector-curvature="0" />
      <path
         d="m -211.67874,107.10898 q 0,0.6223 0.0889,1.20509 0.0889,0.57291 0.28645,1.00753 0.19756,0.43462 0.51365,0.70132 0.31609,0.25683 0.77047,0.25683 h 3.89184 q 0.45438,0 0.77047,-0.25683 0.32596,-0.2667 0.51364,-0.70132 0.19756,-0.43462 0.28646,-1.00753 0.0889,-0.58279 0.0889,-1.20509 h -1.61996 q -0.0198,0.32597 -0.10865,0.56303 -0.0889,0.23707 -0.28646,0.37536 -0.1778,0.14817 -0.33584,0.14817 h -2.50896 q -0.13829,0 -0.34572,-0.13829 -0.19756,-0.14817 -0.27658,-0.38524 -0.0889,-0.23706 -0.11853,-0.56303 z m 0,-1.75824 h 1.61008 q 0.0395,-0.33585 0.11853,-0.57291 0.079,-0.23707 0.27658,-0.37536 0.16792,-0.13829 0.34572,-0.13829 h 2.50896 q 0.16792,0 0.33584,0.13829 0.20743,0.14817 0.28646,0.37536 0.0494,0.11853 0.0691,0.2667 0.0198,0.13828 0.0395,0.30621 h 1.61996 q 0,-0.63218 -0.0889,-1.20509 -0.0889,-0.58279 -0.28646,-1.01741 -0.18768,-0.43463 -0.51364,-0.69145 -0.31609,-0.2667 -0.77047,-0.2667 h -3.89184 q -0.45438,0 -0.77047,0.2667 -0.31609,0.25682 -0.51365,0.69145 -0.19755,0.43462 -0.28645,1.01741 -0.0889,0.57291 -0.0889,1.20509 z"
         style="font-style:normal;font-variant:normal;font-weight:normal;font-stretch:normal;font-family:'7th Service Condensed';-inkscape-font-specification:'7th Service Condensed, ';fill:#009999;fill-opacity:1;stroke-width:0.26458332"
         id="path827"
         inkscape:connector-curvature="0" />
      <path
         d="m -203.30532,106.14096 v 4.13879 h 1.61008 v -2.08421 h 2.79541 q 0.0198,0 0.079,0.0494 0.0692,0.0494 0.13829,0.11854 0.079,0.0691 0.12841,0.13829 0.0593,0.0691 0.0593,0.10865 v 1.66935 h 1.61995 v -2.01507 q 0,-0.19756 -0.0494,-0.3556 -0.0494,-0.15804 -0.12841,-0.29633 -0.079,-0.14817 -0.18767,-0.28646 -0.10866,-0.14817 -0.22719,-0.31609 0.18767,-0.33584 0.29633,-0.50376 0.10866,-0.16793 0.19756,-0.37536 0.0988,-0.20743 0.0988,-0.4445 v -2.08421 q 0,-0.13829 -0.0691,-0.3556 -0.0593,-0.21731 -0.18768,-0.4445 -0.13829,-0.22719 -0.41487,-0.42474 -0.2667,-0.20744 -0.66181,-0.20744 h -5.09693 v 1.97556 h 4.46476 q 0.11853,0 0.19755,0.0988 0.079,0.0889 0.12841,0.23706 0.0593,0.13829 0.079,0.30621 0.0198,0.15805 0.0198,0.30621 0,0.47414 -0.15804,0.76059 -0.14817,0.28646 -0.48402,0.28646 z"
         style="font-style:normal;font-variant:normal;font-weight:normal;font-stretch:normal;font-family:'7th Service Condensed';-inkscape-font-specification:'7th Service Condensed, ';fill:#009999;fill-opacity:1;stroke-width:0.26458332"
         id="path829"
         inkscape:connector-curvature="0" />
      <path
         d="m -195.71371,105.26184 v 1.92616 h 1.63972 v -1.92616 z m 0,-1.04705 h 4.78085 q 0.10865,0 0.18768,0.0395 0.0889,0.0296 0.20743,0.22719 0.12841,0.18768 0.16792,0.41487 0.0494,0.21731 0.0692,0.45438 v 1.75824 q -0.0198,0.23707 -0.0692,0.46426 -0.0395,0.21731 -0.16792,0.40498 -0.0593,0.0988 -0.10866,0.14817 -0.0494,0.0494 -0.0988,0.079 -0.0494,0.0198 -0.10866,0.0296 -0.0593,0.01 -0.13829,0.0296 h -4.74133 v 2.01507 h 5.38339 q 0.30621,0 0.60254,-0.14817 0.30621,-0.15804 0.55316,-0.4445 0.24694,-0.29633 0.39511,-0.7112 0.15804,-0.42474 0.15804,-0.95814 V 104.432 q 0,-0.5334 -0.15804,-0.95814 -0.14817,-0.42475 -0.39511,-0.7112 -0.24695,-0.28646 -0.55316,-0.43462 -0.29633,-0.15805 -0.60254,-0.15805 h -5.36364 z"
         style="font-style:normal;font-variant:normal;font-weight:normal;font-stretch:normal;font-family:'7th Service Condensed';-inkscape-font-specification:'7th Service Condensed, ';fill:#009999;fill-opacity:1;stroke-width:0.26458332"
         id="path831"
         inkscape:connector-curvature="0" />
      <path
         d="m -187.46615,102.17009 h 1.59033 v 8.10966 h -1.59033 z"
         style="font-style:normal;font-variant:normal;font-weight:normal;font-stretch:normal;font-family:'7th Service Condensed';-inkscape-font-specification:'7th Service Condensed, ';fill:#009999;fill-opacity:1;stroke-width:0.26458332"
         id="path833"
         inkscape:connector-curvature="0" />
    </g>
  </g>
</svg>
